<?xml version="1.0" encoding="UTF-8"?>
<svg id="Layer_1" xmlns="http://www.w3.org/2000/svg" version="1.1" viewBox="0 0 339 37">
  <!-- Generator: Adobe Illustrator 29.1.0, SVG Export Plug-In . SVG Version: 2.1.0 Build 142)  -->
  <defs>
    <style>
      .st0 {
        fill: #bfbfbf;
      }

      .st1 {
        fill: #939393;
      }
    </style>
  </defs>
  <path class="st1" d="M27.55,4.43v5.23h-15.32c-2.7,0-3.9,1.46-3.9,3.54,0,1.82.93,3.54,4.43,3.54h7c8.15,0,10.05,4.52,10.05,8.81,0,5.05-2.7,8.77-9.52,8.77H3.64v-5.23h16.83c2.83,0,4.12-1.55,4.12-3.72,0-1.95-1.02-3.72-4.69-3.72h-6.95c-7.97,0-9.83-4.47-9.83-8.63,0-4.96,2.66-8.59,9.3-8.59h15.14Z"/>
  <path class="st1" d="M57.27,4.43v5.23h-14.97c-3.14,0-4.52,1.46-4.52,3.76,0,2.44,1.55,3.54,4.56,3.54h14.7v4.74h-14.83c-3.01,0-4.56,1.2-4.56,3.63s1.46,3.76,4.52,3.76h15.14v5.23h-15.14c-7.08,0-9.96-3.5-9.96-8.15,0-3.41,1.55-5.71,4.29-6.86-2.79-1.15-4.21-3.45-4.21-6.73,0-4.78,2.97-8.15,10.01-8.15h14.97Z"/>
  <path class="st1" d="M85.83,4.43v5.23h-11.56c-5.76,0-8.28,2.88-8.28,9.74s2.48,9.7,8.28,9.7h11.56v5.23h-11.56c-8.72,0-13.51-4.92-13.51-14.92s4.83-14.97,13.51-14.97h11.56Z"/>
  <path class="st1" d="M94.96,4.43v19.97c0,2.97,1.51,4.69,4.96,4.69h5.31c3.37,0,4.92-1.73,4.92-4.69V4.43h5.14v20.37c0,6.29-3.32,9.52-9.7,9.52h-6.29c-6.38,0-9.65-3.23-9.65-9.52V4.43h5.31Z"/>
  <path class="st1" d="M136.19,4.43c6.73,0,9.61,4.16,9.61,8.94,0,3.72-1.77,7.7-6.33,8.99l6.95,11.96h-5.8l-6.82-11.56h-7.79c-.49,0-.75.22-.75.75v10.8h-5.23v-11.82c0-3.37,1.42-4.74,4.69-4.74h11.65c2.97,0,4.16-2.04,4.16-4.16s-1.28-3.94-4.16-3.94h-16.38v-5.23h16.21Z"/>
  <path class="st1" d="M173.34,4.43v5.23h-14.97c-3.14,0-4.52,1.46-4.52,3.76,0,2.44,1.55,3.54,4.56,3.54h14.7v4.74h-14.83c-3.01,0-4.56,1.2-4.56,3.63s1.46,3.76,4.52,3.76h15.14v5.23h-15.14c-7.08,0-9.96-3.5-9.96-8.15,0-3.41,1.55-5.71,4.3-6.86-2.79-1.15-4.21-3.45-4.21-6.73,0-4.78,2.97-8.15,10.01-8.15h14.97Z"/>
  <path class="st0" d="M179.15,32.09V6.72c0-.67-.08-1.3-.08-1.64,0-.42.25-.76.71-.76h7.69c6.13,0,9.54,3.11,9.54,8.11s-3.78,8.32-9.33,8.32h-7.39v11.34c0,.67.13,1.26.13,1.64s-.25.76-.67.76-.67-.38-.67-.76.08-.97.08-1.64ZM187.68,19.74c4.92,0,8.19-3.02,8.19-7.31,0-4.54-3.15-7.1-8.36-7.1h-7.23v14.41h7.39Z"/>
  <path class="st0" d="M216.83,32.89l-7.86-12.77h-7.14v11.97c0,.67.13,1.26.13,1.64s-.25.76-.67.76-.67-.38-.67-.76.08-.97.08-1.64V6.72c0-.67-.08-1.3-.08-1.64,0-.42.25-.76.71-.76h7.73c5.8,0,9.45,2.81,9.45,7.77,0,4.58-3.28,7.65-8.32,7.98l7.65,12.43c.38.59.71.71,1.01.71s.38-.17.71-.17c.42,0,.71.34.71.63,0,.42-.46.8-1.18.8-.92,0-1.55-.46-2.27-1.6ZM209.19,19.11c5,0,8.19-2.65,8.19-7.02s-3.23-6.76-8.32-6.76h-7.23v13.78h7.35Z"/>
  <path class="st0" d="M247.17,19.28c0,8.86-5,15.42-12.9,15.42s-12.9-6.55-12.9-15.42,5-15.46,12.9-15.46,12.9,6.6,12.9,15.46ZM246,19.32c0-7.98-4.33-14.49-11.72-14.49s-11.76,6.51-11.76,14.49,4.37,14.37,11.76,14.37,11.72-6.47,11.72-14.37Z"/>
  <path class="st0" d="M248.77,29.41c-.17-.29-.38-.8-.38-1.13s.21-.63.63-.63c.55,0,.55.63.8,1.26,1.3,3.19,4.12,4.79,7.48,4.79,5.5,0,7.98-3.82,7.98-8.78V6.55c0-.67-.08-1.26-.08-1.64s.21-.76.67-.76c.42,0,.67.38.67.76s-.13.97-.13,1.64v18.23c0,5.54-2.73,9.91-9.12,9.91-3.78,0-6.89-1.81-8.53-5.29Z"/>
  <path class="st0" d="M274.81,17.64h9.33c.59,0,1.13-.08,1.43-.08.38,0,.67.25.67.59,0,.38-.29.63-.67.63-.29,0-.84-.08-1.43-.08h-9.33v14.62h13.53c.71,0,1.22-.21,1.6-.21.34,0,.71.25.71.59,0,.42-.34.63-.71.63h-15.63c-.46,0-.71-.34-.71-.76,0-.34.08-.97.08-1.64V6.72c0-.67-.08-1.3-.08-1.64,0-.42.25-.76.71-.76h14.66c.38,0,.71.21.71.63,0,.38-.34.59-.71.59s-.88-.21-1.6-.21h-12.56v12.31Z"/>
  <path class="st0" d="M291.29,19.28c0-8.86,5.04-15.46,12.85-15.46,4.37,0,7.86,1.97,9.58,5.04.25.42.46.88.46,1.18,0,.34-.25.63-.63.63-.5,0-.55-.5-.88-1.22-1.34-2.86-4.75-4.62-8.53-4.62-7.31,0-11.72,6.51-11.72,14.49s4.45,14.37,11.8,14.37c3.74,0,7.65-1.76,9.41-5.97.25-.63.25-1.18.8-1.18.42,0,.59.38.59.67,0,.21-.13.59-.38,1.13-2.02,4.33-6.09,6.34-10.46,6.34-7.86,0-12.9-6.55-12.9-15.42Z"/>
  <path class="st0" d="M324.2,33.73c0-.38.08-.97.08-1.64V5.33h-7.86c-.71,0-1.22.21-1.6.21s-.71-.21-.71-.59c0-.42.34-.63.71-.63h20.08c.38,0,.71.21.71.63,0,.38-.34.59-.71.59s-.88-.21-1.6-.21h-7.86v26.76c0,.67.08,1.26.08,1.64s-.25.76-.67.76-.67-.38-.67-.76Z"/>
</svg>